<svg
    version="1.1" id="Layer_12" xmlns="http://www.w3.org/2000/svg"
    xmlns:xlink="http://www.w3.org/1999/xlink" x="0px" y="0px" viewBox="0 0 1080 1080"
    style="enable-background:new 0 0 1080 1080;" xml:space="preserve">
                           <g>
                              <path class="st0" d="M285,456c2.3-4,2.4-8.7,3.9-13c11.4-32.8,40-52.6,76.2-52.6c102.3,0,204.6,0,306.9,0.1c4.5,0,6.7-0.9,8.7-5.4
      c5.6-12.6,15.8-19.6,29.7-20c17.7-0.4,35.3-0.2,53-0.1c3.1,0,5.3-0.8,7.4-3.1c3-3.3,6.3-6.4,9.5-9.6c6.7-6.6,11.9-6.1,16.6,1.7
      c0,6.7,0,13.3,0,20c-1.6,0.6-1.5,2.1-1.8,3.3c-4.2,16.2-20.4,29.6-38,29.9c-3.7,0.1-7.4,0.3-11.8,0.5c5.8,8.3,11.4,15.7,16.4,23.5
      c11.7,18.3,27.1,34.2,35.3,54.8c0,4.7,0,9.3,0,14c-1.5,0.4-1.3,1.8-1.7,2.8c-5.3,14.9-17.7,24-33.7,24.1c-18.2,0.1-36.3,0.2-54.5,0
      c-5-0.1-8.4,1.8-11.3,5.8c-16.6,23.5-33.3,47-50.1,70.4c-1.7,2.4-2.5,4.8-2.5,7.8c0.1,38.8,0.1,77.6,0,116.5
      c0,10.7-2.2,12.8-12.9,12.8c-9,0-18,0-27,0c-7.8,0-10-1.8-11.6-9.3c-7.6-35.3-15.3-70.5-22.7-105.8c-0.7-3.4-1.9-4.2-5.2-4.2
      c-62.2,0.1-124.3,0.1-186.5,0c-2.7,0-4.7,0.7-6.5,2.7c-4.8,5.1-9.8,10-14.8,14.9c-1.8,1.7-2.2,3.2-1.7,5.7
      c5.2,27.8,10.2,55.6,15.3,83.4c1.6,8.6-1.8,12.6-10.5,12.7c-9.8,0-19.7,0-29.5,0c-6.7,0-8.8-1.5-10.9-7.9
      c-10.6-31.7-21.2-63.3-31.8-95c-0.5-1.5-0.4-3.3-2.1-4.3c0-2.3,0-4.7,0-7c6-12,10.9-24.4,14.9-37.2c1.2-3.8,0.5-7.9-0.4-11.8
      c-4.2-16.7-8.3-33.5-12.5-50.2c-0.3-1.3-0.1-3.1-1.9-3.7C285,500.7,285,478.3,285,456z M391.4,603.8c2.8,0,4.6,0,6.4,0
      c57.8,0,115.7,0,173.5,0c9.2,0,11,1.4,12.9,10.3c6.9,31.9,13.7,63.7,20.6,95.6c0.9,4.4,0.7,10.1,3.4,12.6c2.8,2.7,8.6,0.3,13,0.9
      c4.3,0.5,5.1-1.1,5.1-5.2c-0.2-36.8-0.1-73.7-0.1-110.5c0-3.6,0.3-6.9,2.5-9.9c18.3-25.6,36.6-51.2,54.9-76.8
      c5.2-7.3,12.5-10.7,21.4-10.8c6.2-0.1,12.3,0,18.5,0c12.5,0,25,0.1,37.5,0c10.9-0.1,18.3-6.8,18.8-16.6c0.3-5.1-2-9.3-4.8-13.3
      c-17.2-24.5-34.4-49.1-51.6-73.6c-2.5-3.6-4.6-7.1-2.1-11.5c2.3-4.1,6.2-4.5,10.4-4.5c8.8,0,17.7,0.1,26.5-0.3
      c5.9-0.3,10.9-2.9,15.1-8c-19.5,0-38.3,0-57.1,0c-14.5,0-18.9,3.5-21.7,17.7c-1,5-3.9,7.5-8.8,7.8c-1.7,0.1-3.3,0.1-5,0.1
      c-105.2,0-210.3,0.1-315.5,0c-19,0-35.3,6-48,20.3c-18.7,20.9-16.3,46.1-13.7,71.1c0.8,7.2,10.2,11.9,17.6,11
      c8.2-1.1,14.5-7.5,15-15.6c0.2-2.8,0-5.7,0.1-8.5c0.4-15,6.9-26.2,20.6-32.6c8.3-3.9,17.3-3.1,26.1-3c4.3,0.1,10.1-1.9,12.4,0.9
      c2.1,2.7,0.4,8.3,0.8,12.5c0.3,3.4-1.2,3.7-4,3.7c-6.8-0.2-13.7-0.2-20.5,0c-11.1,0.2-18,7.1-18.3,18.2c-0.1,3.2,0,6.3-0.2,9.5
      c-0.9,16.2-12.8,29-28.9,31.6c-6.9,1.2-13.3-0.8-20.4-2.7c4,16.1,7.8,31.6,11.8,47c2.8,10.9,2.4,21.4-2,31.7
      c-3.2,7.5-5.9,15.2-9.2,22.6c-1.4,3.1-1.3,5.9-0.2,9.1c8.7,25.8,17.3,51.7,25.9,77.5c3.8,11.4,3.8,11.4,15.6,11.4c6,0,6,0,4.9-5.8
      c-4.6-25-8.9-50.1-13.7-75.1c-1.1-5.5,0.5-9.2,4.3-12.8c13.4-13.2,26.6-26.7,40-39.9c10.1-9.9,15.1-21.6,14.8-35.7
      c-0.1-5.2,0-10.3,0-15.5c0-1.7,0.2-2.6,2.3-2.9c13.9-1.8,14.8-1.1,14.8,12.4c0,3.7,0.1,7.3-0.1,11c-0.4,12.3-4.1,23.5-11.6,33.4
      C398.5,596,395.2,599.5,391.4,603.8z" />
                               <path class="st1" d="M728.8,441.9c0,8.2,0,8.2-8.4,8.2c-8.7,0-8.7,0-8.7-8.9c0-8.2,0-8.2,8.4-8.2C728.8,433,728.8,433,728.8,441.9z
      " />
                           </g>
                        </svg>
