<svg version="1.1" id="Layer_9" xmlns="http://www.w3.org/2000/svg"
     xmlns:xlink="http://www.w3.org/1999/xlink" x="0px" y="0px" viewBox="0 0 1080 1080"
     style="enable-background:new 0 0 1080 1080;" xml:space="preserve">

                           <g>
                              <path class="st0" d="M767.6,432.8c-2.1,5.5-2,11.3-3.1,17c-4.5,21.5-11.9,41.7-25.5,59.2c-7.2,9.3-15.6,17.1-26.6,21.8
      c-1.1,0.5-2,1-2.7,2.2c-7.1,11.4-14.3,22.8-21.5,34.1c-0.9,1.3-1.9,2.5-0.7,4.3c3.7,5.3,2.7,10.5-0.5,15.6
      c-1.5,2.3-0.9,3.1,1.9,3.8c23.1,5.6,38.8,25.8,38.5,49.6c0,2.4-0.4,4.8-0.7,7.1c-0.8,5.2-4.9,7.5-9.7,5.4c-1.8-0.8-3.5-1.9-5.3-2.8
      c-1.7-0.9-3.5-1.8-5.7-3c0,7.4,0,14.4-2.4,21.1c-1,2.9-2.2,5.7-3.6,8.4c-3,5.9-7.8,6.5-12.3,1.5c-4.1-4.6-8.1-9.2-12.6-14.3
      c-1.1,7.1-2.7,13.6-5.9,19.5c-5.3,9.6-12.8,16.9-22.7,21.7c-5,2.4-9.1-0.1-9.9-6c-0.9-7.3-1.7-14.6-2.5-21.8
      c-1.1-9.5-2.2-19.1-3.3-28.8c-5.8,2.7-11.4,5.3-17,7.9c-2.1,1-4.3,1.4-6.5,0.3c-2.2-1.1-3.5-3-3.5-5.4c-0.1-2.8,1.4-4.8,3.9-6
      c5.9-2.8,11.9-5.3,17.5-8.6c22.8-13.3,39.6-32,51-55.7c0.7-1.5,0.7-2.6,0-4.1c-18.8-38.3-48.8-62.9-90.9-70
      c-53.3-8.9-95.8,10-127,54.2c-3.5,4.9-6.1,10.3-8.7,15.7c-0.8,1.6-0.7,2.8,0.1,4.4c18.7,38.2,48.9,61.6,90.5,70.1
      c13.9,2.8,28.1,2.8,42.1,0.5c0.9-0.1,1.9-0.3,2.8-0.3c4.3-0.2,7.1,1.9,7.5,5.5c0.4,3.7-1.8,6.4-6,7.1c-8.2,1.3-16.4,2.1-24.7,2
      c-22.4-0.2-43.4-5.4-63.2-15.9c-1-0.6-2.1-1.1-3.6-1.8c-1.1,9.6-2.2,18.9-3.3,28.2c-0.9,7.5-1.6,15.1-2.6,22.6
      c-0.8,6.4-5.2,8.4-11,5.4c-16.2-8.5-25-22-27.5-40.7c-4.3,4.9-8.2,9.3-12.2,13.8c-5.2,5.8-9.6,5.2-13.2-1.7
      c-4.7-8.9-6.1-18.3-5.5-28.8c-3.7,2-6.9,3.7-10.1,5.4c-6,3.1-9.9,0.7-10.8-6.1c-3.7-26.5,14-50.5,38.8-55.7
      c2.3-0.5,2.1-1.4,1.3-2.9c-0.4-0.8-0.7-1.7-1.2-2.5c-2.7-4.3-2.7-8.5,0-12.7c1.2-1.9,1-3.4-0.3-5.4c-7.3-11.3-14.4-22.7-21.6-34.1
      c-0.5-0.9-1.1-1.4-2-1.8c-15.6-6.7-26.5-18.7-34.6-33.1c-19.9-35.4-26.2-73.1-17.2-112.9c3.1-13.5,8.9-25.8,19-35.8
      c7.8-7.6,13.6-7.5,16.6,4.1c4.9,19.2,10.8,38.1,16.2,57.1c0.4,1.3,0.7,2.5,1.8,3.7c0.5-4.8,0.9-9.6,1.3-14.5
      c1.4-16.1,2.7-32.1,4-48.2c0.5-6.1,5.8-8.4,10.9-4.9c15.7,11,25.7,26.5,33,43.7c10,23.2,14.2,47.6,12.9,72.9
      c-0.9,17.2-4.5,33.7-13.7,48.6c-1.1,1.8-1.4,3.1,0,4.9c1.8,2.3,3.4,4.8,4.7,7.4c1.3,2.7,2.4,2.2,4.4,0.6
      c11.5-10.1,24.5-17.8,38.7-23.5c4.8-1.9,9.7-3.7,14.8-4.8c2.2-0.5,3.2-1.5,2.8-3.8c-0.2-1-0.1-2.1,0-3.2c0.4-5.2,0.3-9.1-6.4-11.6
      c-8.8-3.2-12.3-14.2-9.2-23.3c3-9.1,11.8-14.4,21.7-13.1c9,1.2,16.5,9.3,16.6,18.7c0.1,6.3-2,11.9-7.2,15.7
      c-2.3,1.7-3.2,3.6-2.9,6.3c0.3,3.4-1.4,7.9,0.6,10c2,2.1,6.2-0.2,9.5-0.3c9.3-0.3,18.7-0.6,27.9,0.8c2.7,0.4,3.6-0.5,3.3-3.1
      c-0.2-1.2-0.1-2.4,0-3.6c0.2-4.5-0.1-8.2-4.4-11.8c-6.8-5.7-7.4-15.7-3-23.4c4.4-7.6,13.5-11.4,22-9.2c8.4,2.2,14.4,9.8,14.7,18.7
      c0.3,8.4-5.3,16.5-13.7,19.1c-2.7,0.8-3.3,2-3.1,4.4c0.2,3.7-1,8.1,0.5,11c1.5,2.8,6.4,2.4,9.7,3.6c16.9,5.8,32.4,14.2,45.8,26.1
      c2.4,2.1,3.1,1.5,4.9-0.8c4.6-5.9,5.4-10.7,1.2-18.1c-8.7-15.3-10.9-32.7-10.8-50.2c0.1-30.7,7.3-59.5,24.1-85.6
      c5.9-9.2,13.1-17.1,22.1-23.3c5-3.5,10.3-1.1,10.8,5.1c1.6,19.3,3.2,38.5,4.8,57.8c0.1,1.6,0.4,3.1,1.2,4.8
      c0.4-1.1,0.8-2.3,1.1-3.4c5.7-19.8,11.3-39.6,17-59.4c0.1-0.5,0.4-1,0.5-1.5c2-6.2,6.3-7.7,11.5-3.9c9.3,6.9,15,16.4,19.2,27
      c3.8,9.5,5.8,19.3,7,29.4c0.1,0.8-0.5,1.9,0.8,2.4c0,2.1,0,4.3,0,6.4c-1.3,4.5-1.3,9.1,0,13.6C767.6,427.5,767.6,430.1,767.6,432.8
      z M692.9,363.9c-4.6,4.2-7.9,8.4-10.7,12.9c-18.6,29.7-25,62.2-20.7,96.8c1.7,13.3,5.6,26,14.1,36.8c9.4,11.9,22.7,14.4,35.9,6.9
      c6.3-3.6,11.8-8.4,16-14.2c24.8-33.7,31.8-71.3,24.5-112c-1.9-10.5-5.9-20.4-13-29.1c-0.4,1.2-0.8,2-1,2.9
      c-8.3,28.9-16.5,57.7-24.8,86.6c-1.3,4.6-3.5,6.5-7,6.3c-3.5-0.2-5.5-2.5-5.9-7.2c-1.6-18-3.1-36.1-4.6-54.2
      C694.7,385.7,693.8,375.1,692.9,363.9z M386.8,361.7c-8.6,10.4-12.4,22.3-14.3,34.7c-4.3,27.1-0.9,53.4,9.5,78.7
      c6,14.8,14.1,28.4,26.9,38.5c16.2,12.8,33.6,9.7,44.5-7.9c4.2-6.7,7.1-14,8.8-21.7c7.8-36.3,2.2-70.6-15.9-102.9
      c-3.5-6.2-7.6-12-13.4-17.3c-1.2,14.4-2.4,28.2-3.5,42c-1.3,15.1-2.6,30.3-3.9,45.4c-0.3,3.7-2.1,6-5.9,6.4c-3.6,0.3-5.7-1.6-7-6.2
      c-5.6-19.7-11.3-39.3-16.9-59C392.7,382.3,389.8,372.3,386.8,361.7z M477.2,688.3c0.2-0.8,0.5-1.6,0.6-2.3
      c1.4-12.5,2.3-25.2,4.5-37.6c1.2-6.7-1-10.4-6.2-13.5c-1.7-1-2.4-1.3-3.8,0.4c-4.3,5.1-7.1,10.9-8.4,17.4
      C461.1,665.7,466.9,681.5,477.2,688.3z M648.2,688.7c15.9-12.6,18.8-36,6.9-51.3c-3.3-4.3-3.1-4-7.8-1c-4.2,2.6-5,5.7-4.1,10.3
      c1.1,5.6,1.4,11.4,2,17C646.2,671.9,647.2,680.1,648.2,688.7z M692,663.5c0.4-1.9,0.5-2.8,0.7-3.7c3.8-17-6.2-35.5-22.4-41.8
      c-1.9-0.7-3.2-0.7-4.4,1c-1.1,1.5-2.5,2.8-3.7,4.2c-0.6,0.7-1.6,1.4-0.6,2.3c5.3,4.8,7.3,12,12,17.2
      C679.5,649.4,685.5,656.2,692,663.5z M433.8,662.7c1.4-0.4,2-1.6,2.8-2.6c8.3-9.6,17.3-18.6,23.6-29.8c3.7-6.5,4.3-6.1-0.9-11.5
      c-1.2-1.2-2.2-1.5-3.8-0.9C438.3,624,428,645,433.8,662.7z M449.3,606.2c0.1-1.6-3-4.2-4.9-4c-16.6,1.4-30.8,14.9-33.5,31.9
      c-0.3,1.7,0.6,2.6,1.9,1.9c4.5-2.4,10.2-3.5,13.1-7.9c5.6-8.7,12.5-15.8,21.8-20.3C448.3,607.4,449.2,607.3,449.3,606.2z
       M713.9,636.8c1.3-14.5-13-33.6-33.6-34.8c-2.5-0.2-2.9,2.2-3.7,3.6c-1,1.9,1.2,2,2.2,2.5c6.9,3.5,13.4,8,17.1,14.6
      C700.1,630.2,707.2,632.8,713.9,636.8z M445.8,556.7c4.8-7.1,9.5-13.7,15-19.8c0.9-1,0.2-1.7-0.3-2.5c-1.8-2.8-3.6-5.6-5.3-8.4
      c-0.6-1-1.2-1.7-2.4-0.6c-6.1,5-13.1,7.8-21.3,8.8C436.3,541.9,440.9,549.1,445.8,556.7z M694.2,534.2c-8.3-0.9-15.2-3.7-21.2-8.6
      c-1.5-1.2-2-0.4-2.7,0.7c-1.6,2.6-3.2,5.2-4.9,7.7c-1.2,1.6-1,2.7,0.3,4.1c4.3,4.8,8.3,10,11.9,15.4c0.7,1,1,2.5,2.6,2.7
      C684.7,549,689.3,541.9,694.2,534.2z M539.6,461c0.1-3.8-3.2-7.2-7-7.3c-3.7-0.1-7.2,3.3-7.2,7c-0.1,3.7,3.2,7.1,7,7.2
      C536.2,468.1,539.5,464.8,539.6,461z M600.2,461c0-3.7-3.4-7.1-7.1-7.2c-3.7,0-7.1,3.3-7.1,7.1c0,3.8,3.2,7.1,7,7.1
      C596.8,468,600.2,464.7,600.2,461z" />
                               <path class="st1"
                                     d="M767.6,424.8c-1.3-4.5-1.3-9.1,0-13.6C767.6,415.7,767.6,420.3,767.6,424.8z" />
                           </g>
                        </svg>
