<svg version="1.1" id="Layer_6" xmlns="http://www.w3.org/2000/svg"
     xmlns:xlink="http://www.w3.org/1999/xlink" x="0px" y="0px" viewBox="0 0 1080 1080"
     style="enable-background:new 0 0 1080 1080;" xml:space="preserve">

                           <g>
                              <path class="st0" d="M350.8,481.8c0.2-26,8.5-49.7,21.5-71.9c9.2-15.6,19.8-30,35.2-40.2c34.7-23.1,70.8-25.3,107.6-6
      c29.4,15.3,52.3,37.3,65.6,68.3c6.7,15.6,9.9,32.1,12.5,48.8c2.3,14.8,4.1,29.7,8.7,44c3.2,9.9,7.8,19.2,14.3,27.3
      c7.1,8.9,10.6,18.9,8.5,30.3c-0.3,1.7,0.3,2.7,1.6,3.8c11.6,9,23.3,18.1,34.8,27.3c1.9,1.6,3.6,1,5.6,0.6c12.5-2.8,25-3.2,37.3,1
      c18.1,6.3,29.8,25.8,26.5,44.5c-2.4,13-11.5,20-23.3,23.8c-3,1-4.1,2.1-4,5.5c0.7,19.2-15.1,36.9-34.6,39.4
      c-25.3,3.2-46.1-13.2-49.1-38.6c-0.7-6.2-1.1-12.5-0.1-18.7c0.3-1.9-0.3-2.9-1.9-3.9c-13.1-8.1-26.2-16.4-39.3-24.6
      c-1.1-0.7-2.1-1.5-3.7-0.9c-13.2,4.9-26.5,3.5-39.8,0c-18-4.9-34.7-13.1-51.6-20.8c-19.7-9-39.8-17.5-58.6-28.2
      c-32.2-18.4-58-43.3-69.3-80.1C352.1,502.5,350.7,492.2,350.8,481.8z M369,481.8c0.1,9.3,1.2,18.2,4.1,26.8
      c10.3,31.2,32.6,52.4,60.2,67.9c22,12.4,45.3,22.4,68.4,32.6c14,6.2,27.8,13,43,16c11.5,2.3,22.6,2.2,32.4-5.6
      c3.2-2.5,24.5-27.7,26.5-31.2c4.9-8.8,4.9-17.2-1.8-25.3c-6.9-8.3-11.8-17.9-15.5-28c-6.1-16.5-8.3-33.9-11-51.1
      c-2.4-15.4-5.1-30.8-11.4-45.2c-13.2-30-36.3-50-65.8-62.9c-24.4-10.6-48.6-8.7-72,3.9c-16.4,8.8-27.9,22.3-37.1,38.1
      C377.3,437.7,369.4,458.7,369,481.8z M637.1,679.2c0.1,5.8,0.7,12,3.5,17.7c5.3,11.3,18.5,16.5,30.4,11.8
      c11.9-4.6,16.5-15.1,12.3-28c-2.1-6.5,1.4-11.8,8.1-12.6c5.4-0.6,10.6-1.7,15.4-4.4c4.5-2.5,6.5-6.2,6.1-11.4
      c-0.9-10.5-7.2-18.2-17.4-21c-10-2.7-19.9-1.1-29.5,1.7c-4.5,1.3-8.1,0.7-11.8-2.2c-11.6-9.3-23.4-18.3-35-27.5
      c-1.5-1.2-2.3-1.5-3.7,0.3c-6.4,8.3-13.8,15.7-20.3,23.9c-1.8,2.3-1.5,2.8,0.7,4.2c12.6,7.8,25.1,15.8,37.7,23.6
      c4.1,2.6,6.2,6,5.1,11C637.5,670.5,637.2,674.6,637.1,679.2z" />
                               <path class="st0" d="M463.9,391.4c18.2-0.1,30.2,3.8,41.4,10.2c4.8,2.7,6.3,8.1,3.8,12.5c-2.4,4.4-7.8,6-12.7,3.4
      c-8.7-4.7-17.7-8-27.7-7.9c-10.6,0.1-20,3.6-28.1,10.6c-4.7,4.1-10,4.2-13.7,0.4c-3.8-4-3.4-9.5,1.3-13.8
      C439.9,396.2,453.6,391.5,463.9,391.4z" />
                               <path class="st1" d="M511.4,427.2c0-6.2,5-11.1,11.2-11c6.2,0,11.2,5.1,11.1,11.2c0,6.1-5.2,11.2-11.2,11.2
      C516.3,438.5,511.3,433.3,511.4,427.2z" />
                           </g>
                        </svg>
