<svg version="1.1" id="Layer_11" xmlns="http://www.w3.org/2000/svg"
     xmlns:xlink="http://www.w3.org/1999/xlink" x="0px" y="0px" viewBox="0 0 1080 1080"
     style="enable-background:new 0 0 1080 1080;" xml:space="preserve">
                           <g>
                              <path d="M356.5,560.4c0.9-7.1,1.5-14.3,2.8-21.3c6.9-37,22-70.4,46-99.6c8-9.8,17.3-18.2,28.1-24.9c18.5-11.6,37-11.3,55.4,0.4
      c14.6,9.3,26.2,21.6,35.8,35.8c5.1,7.5,9.5,15.5,14.2,23.2c0.6,1,1.2,2,2,3.4c2.2-4.1,4.1-7.8,6.2-11.4
      c11.6-19.4,24.8-37.3,43.9-50.1c19.9-13.4,40-13.1,59.9,0.4c17.3,11.8,30.2,27.5,41.1,45c15,24,25.1,50,29.9,77.9
      c4.8,28,3.5,55.4-9.7,81.2c-15.2,29.8-39.1,48.3-72.3,53.7c-36.3,5.9-67.9-4.2-94.6-29.6c-1.8-1.7-3.4-3.6-4.9-5.2
      c-5.6,5.4-10.8,10.9-16.6,15.7c-13,10.6-28.1,16.7-44.6,19.3c-24,3.7-47.2,1.3-69-10.2c-20.4-10.8-34.6-27.2-43.9-48.1
      c-5.1-11.5-8.1-23.5-9.3-36c-0.1-1-0.4-2.1-0.6-3.1C356.5,571.4,356.5,565.9,356.5,560.4z M551.6,565.5c-0.3-3.3-0.4-9.8-1.3-16.2
      c-5.3-35.1-18-67.3-39-96.1c-8-11-17.4-20.7-29.2-27.9c-12-7.3-24.5-9.1-37.6-2.6c-9.4,4.6-17.3,11.1-24.3,18.8
      c-24,26.6-38.5,58-46.3,92.7c-4.8,21.4-5.9,42.9-0.1,64.4c5.5,20.4,16.7,37,34.4,48.8c22.9,15.1,47.9,19.3,74.5,13.2
      c23.6-5.4,42.3-18,55.2-38.7C548,605.5,551.5,587.5,551.6,565.5z M712,567.7c-0.7-7.7-1.1-15.5-2.3-23.2
      c-5.7-35.4-19.3-67.5-41.4-95.7c-8.3-10.6-17.9-19.9-30.1-26.1c-9.4-4.8-19-6.1-29.1-2.3c-10.9,4.1-19.7,11.2-27.6,19.5
      c-14.2,14.9-24.6,32.3-33.3,50.8c-0.5,1.2-0.2,3,0.2,4.3c3.2,10,7,19.8,9.6,30c8.8,34.8,9.2,68.9-9.1,101.3
      c-0.5,0.8-0.2,2.6,0.5,3.4c2.3,2.9,4.7,5.8,7.4,8.2c24.8,22,53.6,29.6,86,22.6c22.8-5,41.2-17,54-36.7
      C707.9,606.8,711.7,587.8,712,567.7z" />
                               <path d="M386.6,565.5c0.3-16.8,3.6-33,9.1-48.8c1.6-4.5,5.1-6.5,8.8-5.1c3.5,1.3,5,5.1,3.4,9.4c-4.8,12.6-7.6,25.6-8.6,39.1
      c-0.7,9.9,0.1,19.6,3.9,28.9c0.4,0.9,0.7,1.8,0.8,2.7c0.7,3.8-1,6.9-4.4,7.9c-2.9,0.9-6.4-1-7.7-4.3c-3.4-8.3-4.9-17-5.2-25.9
      C386.6,568.2,386.6,566.9,386.6,565.5z" />
                               <path
                                   d="M566.5,509.3c0.6-11.2,4.9-23.1,11.2-34.4c6.4-11.5,14.2-22.2,23.3-31.8c3.9-4.2,6.9-4.8,10.1-2c3.7,3.3,3.5,6.7-0.7,11.1
      c-10.7,11.2-19.8,23.5-25.6,37.8c-2.8,6.9-4.1,14.4-5.3,21.8c-0.9,5.6-2.5,8.6-6.7,8.5C568.6,520.2,566.3,516.9,566.5,509.3z" />
                           </g>
                        </svg>
