<svg version="1.1" id="Layer_7" xmlns="http://www.w3.org/2000/svg"
     xmlns:xlink="http://www.w3.org/1999/xlink" x="0px" y="0px" viewBox="0 0 1080 1080"
     style="enable-background:new 0 0 1080 1080;" xml:space="preserve">

                           <g>
                              <path class="st0" d="M694,325.2c5.9,1.2,11.9,2.1,17.7,3.5c28.3,7,43.7,19.2,48.9,55.2c4.8,33.1,0.3,65.9-10,97.8
      c-13.9,42.8-35.3,81.5-64.3,115.9c-2.2,2.6-3,4.8-2.4,8.4c5.7,36.5-3.9,68.4-29.2,95.4c-12.5,13.3-30.9,13.6-43.9,0.9
      c-9.9-9.6-19.5-19.5-29.3-29.3c-1.5-1.5-2.6-2.9-5.4-1.9c-48,16.1-97.6,22.5-147.9,24.1c-1,0-2,0.1-3.1,0.2c-0.3,1.9,1.1,3,1.9,4.3
      c25.2,41.9,18.8,97.3-15.4,132.1c-5.9,6-11.3,6.1-17.1-0.3c-29.1-31.9-37.3-68.6-25.2-110c0.2-0.6,0.4-1.3,0.6-1.9
      c0.1-0.3,0.1-0.6,0.2-1.5c-6.6,1.2-12.7,3.6-19.2,4.5c-36.2,5.4-67.7-4.3-94.4-29.2c-6.1-5.7-6-11.1,0.2-17.1
      c34.9-34,89.9-40.4,131.7-15.3c1.3,0.8,2.5,1.5,4.5,2.6c0.3-5.9,0.6-11.5,0.9-17c2.1-45.7,8.8-90.5,23.3-134c0.9-2.7,0.3-4.2-1.5-6
      c-9.6-9.4-19.1-19-28.6-28.5c-13.7-13.8-13.6-32.1,0.7-45.3c27.1-25.2,59.2-34.4,95.6-28.5c2.8,0.5,4.6,0,6.7-1.7
      c40.5-34.1,86.1-58.3,137.7-70.7c10.8-2.6,21.8-4.4,32.9-5.7c1-0.1,2.4,0.6,3-1C673.4,325.2,683.7,325.2,694,325.2z M711,524.9
      c-2.4,0-4.3-0.1-6.3,0c-15.9,0.9-31.5-1.1-46.7-6.1c-10.6-3.5-20.7-8.1-30.1-14.1c-5.8-3.7-7.4-9.3-4.3-14.4
      c3.2-5.1,8.8-6,14.8-2.5c0.9,0.5,1.7,1.1,2.5,1.6c23.9,13.8,49.3,18.9,76.7,13.8c3-0.6,4.4-1.9,5.5-4.7
      c10.4-26.1,17.5-52.9,19.4-81c1.1-15.7-0.2-31.2-5.6-46.2c-3.6-10.1-10.2-16.7-20.3-20.4c-10.6-3.8-21.5-5.7-32.7-5.8
      c-32.2-0.4-62.8,7.4-92.6,18.8c-4.8,1.8-6.5,4.6-7.2,9.2c-2.9,19.7-0.8,38.7,6.3,57.3c2.4,6.4,0.1,11.9-5.6,13.9
      c-5.4,1.9-10.6-0.7-12.9-6.9c-1.8-4.8-3.4-9.7-4.8-14.6c-4.2-14.9-4.8-30.1-3.7-45.9c-8.6,4-16.2,8.6-23.8,13.3
      c-48.2,29.9-84.6,69.3-102.8,124.4c-16.9,51.2-23.6,103.8-24.3,157.4c-0.1,3.8,2,3.3,4.4,3.3c38-0.4,75.7-3.9,112.8-12.1
      c33-7.3,64.8-18,93.9-35.9c28.1-17.3,48.6-42,67.2-68.6C698.4,548.1,705.1,536.9,711,524.9z M403.1,810.8
      c26.9-33.3,24-81.9-0.2-110.2C377.6,728.7,377.6,783.2,403.1,810.8z M277.3,685c32.1,27.2,83,24.3,110.1-0.2
      C356.4,659.7,307.9,659.6,277.3,685z M467.2,423.3c-1.4-1.2-2.8-0.9-4.1-0.9c-23.9,0.4-44.7,8.5-62.2,25
      c-5.9,5.6-5.9,10.9-0.1,16.7c7.2,7.3,14.6,14.5,21.8,21.9c2.4,2.4,3.4,2.8,4.9-0.8c5.8-13.8,13.1-26.8,21.5-39.1
      C454.5,438,460.7,430.5,467.2,423.3z M665.5,620.9c-0.9,0.4-1.4,0.5-1.8,0.8c-18,16.8-38.8,29.3-61.3,39.1
      c-3.2,1.4-2.6,2.4-0.6,4.3c7.5,7.3,14.8,14.8,22.2,22.1c6,5.9,11.2,5.7,17.1-0.5c9.9-10.6,16.9-22.8,21-36.8
      C664.8,640.6,666.1,631,665.5,620.9z" />
                               <path class="st1" d="M680.5,417.3c-5.5-0.1-9.7-4.3-9.7-9.8c0-5.6,4.5-10.2,10-10.1c5.3,0.1,9.8,4.5,9.8,9.9
      C690.7,412.8,686.2,417.4,680.5,417.3z" />
                               <path class="st1" d="M601.9,479.1c-5.5-0.1-9.7-4.4-9.7-9.8c0-5.5,4.7-10.1,10.2-10c5.3,0.1,9.8,4.7,9.8,10
      C612.1,474.9,607.6,479.2,601.9,479.1z" />
                           </g>
                        </svg>
