<svg version="1.1" id="Layer_2" xmlns="http://www.w3.org/2000/svg"
     xmlns:xlink="http://www.w3.org/1999/xlink" x="0px" y="0px" viewBox="0 0 1080 1080"
     style="enable-background:new 0 0 1080 1080;" xml:space="preserve">

                           <g>
                              <path class="st0" d="M284,447.3c8.6-17.7,25-23.7,42.4-27.9c6.3-1.5,12.3-3.2,18.2-6.3c18.5-9.6,38.5-12,59-11.8
      c18.4,0.2,36.3,4.2,54.5,6.4c31.7,3.9,63.1,3.6,93.8-6.4c21.3-6.9,38.9-19,53.3-36.2c14.8-17.6,32-32.4,53-42.3
      c21.7-10.2,44.1-14.3,67.1-5.4c18.9,7.4,31.7,20,30.9,42.2c-0.1,2.3,1.3,3.7,2.5,5.3c12.4,17.4,24.9,34.8,37.3,52.3
      c0,2.7,0,5.3,0,8c-2.6,3.4-2.5,7.7-3.9,11.5c-4.7,13-11.2,17.4-25,16.2c-12.6-1-25.1-3.4-37.4-6.3c-3.1-0.8-5.1-0.1-7.4,2.2
      c-19.8,20.6-34.8,44.5-49.2,68.9c-12.3,20.7-23.1,42.3-37,62.1c-6.7,9.6-14.3,18.4-24.7,24.3c-1.8,1.1-2.9,2.4-3.5,4.5
      c-4,13.3-5.5,26.8-6.2,40.7c-1.1,22.5,2.3,43.5,13.3,63.2c1.2,2.2,2.1,4.5,3,6.8c3,7.4,0,12.1-8,12.3c-9.7,0.2-19.3,0-29,0
      c-16.3,0-16.2-0.2-17.4-16.2c-2.7-37-5.7-74.1-8.5-111.1c-0.2-2.7-1-4.5-3.4-6c-5.8-3.7-10.8-8.3-15.5-13.3
      c-1.7-1.8-3.2-2.2-5.6-1.3c-31.1,11.4-63.2,11.7-95.6,7.9c-13.6-1.6-26.9-4.3-40-8.1c-3.3-1-5.3-0.1-7.7,2.3
      c-7.8,7.7-13.7,16.6-18.4,26.4c-6.2,12.9-12.9,25.5-19.5,38.2c-1.4,2.7-1.7,5-0.8,8c6,20.2,11.7,40.5,17.5,60.8
      c2.5,8.6-0.3,12.5-9.1,12.5c-10.3,0.1-20.7,0.1-31,0c-7.4,0-9.5-2.2-10.3-9.8c-2.5-24.7-5.1-49.4-7.6-74c-0.2-2.2-0.1-4.3,0.4-6.4
      c2.8-12.5,5.4-25,8.1-37.5c0.6-2.8,0.7-5.1-1.6-7.6c-5.2-5.7-5.8-13.2-7-20.4c-3.8-22.8-6.5-45.8-7.9-68.9c-0.4-7,0.1-14,0.5-21
      c0.1-1.8,0.6-3.6-1-5.1c-7-6.8-12.1-14.8-15.8-23.8C284,454,284,450.7,284,447.3z M739.8,349.2c-4.8-11.2-13.6-15.9-23.3-18.7
      c-21.2-6.1-40.7-0.7-59.4,9.7c-18.2,10.2-32.3,25-45.8,40.5c-13.8,15.8-31,26.5-50.6,33.5c-36.4,13-73.8,13-111.5,7.5
      c-24.3-3.5-48.4-7.9-73-3.5c-19.4,3.5-36.2,11.2-47.6,28c-9.5,14.1-13.1,30.2-13.4,46.9c-0.6,29.8,4.1,59.1,9,88.3
      c0.4,2.5,1.6,4.7,3.4,6.6c8.5,8.9,26.4,9.5,35.6,1.6c6.7-5.8,11.9-13.1,18.5-18.9c3.3-3,7.1-4.3,11.5-3
      c21.1,6.4,42.8,9.9,64.8,10.9c21.4,1.1,42.6-0.5,63.1-7.2c7.8-2.5,15.1-6.1,21.7-10.9c4.2-3,8.5-2.4,11,1.1
      c2.5,3.4,1.7,7.8-2.2,10.9c-0.5,0.4-1,0.9-1.6,1.2c-2.3,1.3-1.9,2.3-0.1,4c4.8,4.4,9.8,8.5,15.5,11.8c19.3,11.3,37.1,7.9,51.5-9.2
      c10.7-12.7,18.8-27,26.9-41.3c19.2-33.5,37.5-67.5,63.9-96.2c1.7-1.9,1.4-2.8-0.3-4.3c-5.3-4.7-8.9-10.8-11.9-17.1
      c-2-4.3-0.8-8.5,2.8-10.4c3.6-2,7.8-0.7,10.3,3.2c0.6,1,1.1,2,1.7,3.1c3.6,7.4,8.5,12.3,17.4,13.9c12.9,2.3,25.7,5.5,38.8,6.9
      c2.8,0.3,5.8,1,8.3-0.5c3.8-2.3,6.1-15.5,3.5-19.1c-11-15.4-22.2-30.8-33-46.4c-5.7-8.2-13.8-11.7-22.8-10.1
      c-9.8,1.7-19.1,0.7-28.5-1.3c-2.9-0.6-6-0.4-9-0.7c-2.2-0.2-2.7,0.6-2,2.5c0.6,1.4,1.2,2.7,1.9,4c4.3,7.6,11.2,12.1,18.4,16.4
      c3.9,2.3,5,6.8,3,10.3c-2,3.5-6.3,4.7-10.5,2.5c-6.7-3.4-12.9-7.7-17.9-13.3c-7.5-8.5-12.3-18.1-11.1-29.9c0.4-4.2,2.8-6.8,7-7
      c4.8-0.2,9.6-0.5,14.5-0.3c7.5,0.4,14.9,3.6,22.1,3C720.1,347.2,729.5,345.6,739.8,349.2z M353.3,610.5c-7,0.2-13.2-0.6-19.2-2.6
      c-2.2-0.7-2.8-0.3-3.2,1.9c-1.9,9.3-4,18.5-5.9,27.8c-0.7,3.2-2,6.4-1.7,9.8c1.1,10.9,2.2,21.9,3.5,32.8
      c1.2,10.5,1.3,10.5,11.6,7.1c2.1-0.7,3-1.3,2.1-3.8c-2-6-3.1-12.3-5.4-18.1c-3.6-8.6-2.3-16.1,2.4-24
      C343.1,631.6,347.8,621.2,353.3,610.5z M577,690.7c2.7-0.9,5.1-1.7,7.4-2.3c2.5-0.6,2.8-1.7,2.9-4.4c0.7-24.1-3.3-48.6,4.5-72.7
      c-6.5,0.5-12.6-0.3-18.5-2c-2.7-0.8-2.6,0.7-2.5,2.6c0.7,8.9,1.3,17.9,2,26.8C574.3,655.9,575.7,673.1,577,690.7z M589.5,717
      c2.2,0,4.3-0.1,6.5,0c3.5,0.3,4.8-0.3,3.1-4.2c-5.2-12-5.1-12-17.6-7.8c-2.8,0.9-3.5,2.1-3.2,5c0.9,7,0.7,7,7.7,7
      C587.2,717,588.3,717,589.5,717z M340.2,717c2.5,0,5,0,7.5,0c1.2,0,2.4,0,1.8-1.9c-1.4-4.5-1.8-10.1-4.6-13.3
      c-1.9-2.1-6.9,1.4-10.6,2.3c-0.5,0.1-1,0.2-1.5,0.3c-2.9,0.5-3.9,1.8-3.4,5.1c1.3,7.5,1,7.5,8.7,7.5C338.9,717,339.5,717,340.2,717
      z M315.5,438.9c-18.5,7.9-19.8,14.5-10.8,24.2C307.1,454.9,310.5,447.1,315.5,438.9z" />
                               <path class="st1" d="M727,391.4c-4-0.1-7.2-3.2-7.2-7.3c0-4.1,3.5-7.7,7.5-7.6c3.8,0.1,7.3,3.6,7.4,7.4
      C734.7,387.9,731.1,391.4,727,391.4z" />
                           </g>
                        </svg>
