<svg version="1.1" id="Layer_3" xmlns="http://www.w3.org/2000/svg"
     xmlns:xlink="http://www.w3.org/1999/xlink" x="0px" y="0px" viewBox="0 0 1080 1080"
     style="enable-background:new 0 0 1080 1080;" xml:space="preserve">

                           <g>
                              <path class="st0" d="M358.3,645.7c-2.1,2.1-0.7,4,0.2,5.8c3.9,7.9,7.9,15.7,11.8,23.6c4.2,8.4,0.9,13.8-8.3,13.8
      c-9.2,0-18.3-0.1-27.5,0.1c-4.9,0.1-8.1-1.7-10.3-6.2c-7.2-14.8-14.6-29.5-22.1-44.1c-1.9-3.7-2.1-7.1-0.5-10.9
      c4.5-10.7,8.6-21.6,13-32.3c0.9-2.3,1.2-4.3,0.8-6.7c-5-29.4-10.8-58.6-14.3-88.2c-2.4-20-3.4-40.6,6-59.8
      c3.3-6.6,7.5-12.5,12.4-18.2c-12.7-6.6-19.6-16.7-19.2-30.9c0.4-16.2,13.8-29.9,29.9-30.6c8.5-0.4,17-0.2,25.5-0.1
      c5.1,0.1,8.4,3.4,8.5,7.9c0,4.5-3.3,7.9-8.4,8c-7.5,0.1-15,0-22.5,0.1c-7.8,0-13.6,3.8-16,10.4c-2.4,6.4-0.9,12.2,3.8,17
      c4.8,4.8,13.1,6.2,19.5,3.2c10.1-4.7,20.8-6.7,31.9-6.7c77,0.1,154,0,231,0.1c3.5,0,5.7-1,7.9-3.8c20.3-25.8,47.2-37.4,79.9-36.3
      c7.1,0.2,10.5,5.2,8,11.9c-4.5,11.6-9.1,23.2-13.9,34.7c-1.2,3-1,4.5,2,6.2c10.1,5.8,18.7,13.5,25,23.3
      c14.8,23.2,34.8,40.1,60,50.9c6.1,2.6,8.3,6.6,8.1,13.2c-0.4,13.8-0.3,27.7-0.1,41.5c0.1,4.7-1.8,7.7-5.5,10.4
      c-25.7,18.1-53.2,32-84.1,38.8c-1.3,0.3-2.5,0.6-3.5,1.6c-6.1,6.1-12.2,12.3-18.4,18.4c-1.2,1.2-1.3,2.6-1.6,4.1
      c-1.5,9.4-2.6,18.9-4.9,28c-2.6,10-0.5,19.1,3.4,28c5.6,12.9,1.5,18-12.4,17.3c-10.5-0.6-21-0.2-31.5-0.1c-5,0.1-8.1-2.1-9.6-6.9
      c-4-12.7-8.2-25.2-14.7-37c-2.7-4.9-1.8-10.6-1-15.7c1.5-10.4-5.1-17-9.9-24.6c-1.6-2.5-3.3-0.6-4.7,0.1
      c-21.7,9.4-44.2,15.4-67.8,17.4c-28.1,2.4-55.6-0.3-82.3-9.1c-5-1.6-5.8-0.3-7.5,4.2c-5.5,14.1-1.6,27.8,0.6,41.7
      c1,6.6,2.3,13.1,3.3,19.7c0.9,6.1-2.4,10.1-8.5,10.2c-10.2,0.1-20.3,0-30.5,0.1c-4.2,0-6.8-2.2-8.7-5.6
      c-6.4-11.3-12.8-22.6-19.3-33.8C360.4,648.3,360,646.5,358.3,645.7z M649.1,673c-1.4-4.4-2.6-8.3-4-12.2c-0.8-2.3-0.9-4.5-0.5-6.9
      c2.3-13.6,4.7-27.2,6.7-40.9c0.8-5.3,2.7-9.6,6.8-13.4c6.6-6.1,12.8-12.6,19.1-19c1.9-1.9,4.1-3.2,6.8-3.8
      c28.2-5.9,53.8-17.7,77.4-34.2c2-1.4,2.8-2.7,2.8-5.2c-0.1-10.2-0.2-20.3,0-30.5c0.1-3.6-0.9-5.5-4.3-7.1
      c-24.8-11.5-44.6-28.8-59.4-51.8c-4.8-7.5-11.3-13.5-18.4-18.8c-3.5-2.6-4.8-2.2-6.3,2c-4.8,13.8-14.2,22.8-28.9,25.2
      c-9.2,1.5-18.6,0.7-27.9,0.3c-4.3-0.2-6.8-3.5-6.8-7.9c0.1-4.4,2.7-7,7-7.8c1.1-0.2,2.3-0.1,3.5-0.1c6.3,0,12.7,0.1,19-0.1
      c7.4-0.3,13.7-3.3,16.6-10.1c7.6-17.6,14.6-35.5,22.1-53.9c-4.1,0.6-7.4,0.9-10.6,1.5c-20.6,4.1-36.6,15.4-48.7,32.3
      c-3.3,4.7-7.3,6.4-13.1,6.4c-79.2-0.2-158.3-0.1-237.5-0.1c-25.7,0-47,16.9-53,41.7c-2.1,8.5-1.4,17.2-1.4,25.9
      c0,22.2,7.2,41.7,21.6,58.6c7.7,9,15.3,18,23.1,26.9c2.3,2.7,3.4,5.5,3.3,9c-0.1,13.3,0,26.7-0.1,40c0,2,0,3.9,1.1,5.8
      c8.7,15.1,17.4,30.3,26,45.4c0.8,1.4,1.5,2.8,3.7,2.7c5.1-0.2,10.3-0.1,15.7-0.1c-1.4-8.5-3-16.5-4-24.6c-0.9-7-3.6-13.8-1.4-21.2
      c2.6-8.8,4.7-17.7,6.8-26.6c0.7-2.9,2.1-5.1,4.4-6.9c17.7-14.4,26.9-33,27.7-55.8c0.2-5.5,3.3-8.9,8-8.9c4.9,0,8,3.6,8,9.4
      c-0.1,7.9-1.4,15.6-3.6,23.1c-3.9,13.6-11,25.5-20.8,36.3c28.2,8.9,56.5,11.3,85.3,7.6c22-2.8,42.8-9.4,62.6-19.2
      c5.1-2.5,8.3-1.5,11.6,3.1c1.9,2.7,3.5,5.7,5.6,8.2c9.4,10.8,13.3,23.1,11.3,37.2c-0.3,2.1-0.2,4.3,0.9,6.3
      c5.2,9,8.7,18.6,11.7,28.5c0.7,2.5,1.7,3.5,4.4,3.4C635.7,672.8,642,673,649.1,673z M350.9,672.2c-2.2-4.4-4.1-9.3-6.8-13.5
      c-4-6.2-4-12.1-1.3-18.8c2.4-6.1,5.4-12.2,5.5-19c0.1-12.5,0-25,0-37.5c0-1.4,0.4-3-0.7-4.3c-6.9-8-13.8-16-21.6-25.2
      c1.5,8.9,2.4,16.4,4,23.6c2.5,10.7,2.4,20.8-3,30.8c-3.5,6.5-5.6,13.8-8.6,20.7c-1.1,2.5-1,4.5,0.3,7c4.5,8.5,9.3,16.9,12.8,25.9
      C335.1,671.2,340.3,675.8,350.9,672.2z" />
                               <path class="st1" d="M696.4,497c-6.6,0.1-12.1-5.4-12.1-12c0-6.6,5.5-12,12.1-12c6.4,0.1,11.7,5.3,11.9,11.7
      C708.4,491.3,703,496.9,696.4,497z" />
                           </g>
                        </svg>
