<svg version="1.1" id="Layer_4" xmlns="http://www.w3.org/2000/svg"
     xmlns:xlink="http://www.w3.org/1999/xlink" x="0px" y="0px" viewBox="0 0 1080 1080"
     style="enable-background:new 0 0 1080 1080;" xml:space="preserve">

                           <g>
                              <path class="st0"
                                    d="M492.7,706.7c8.6,0,16.8,0.1,25-0.1c2.5,0,3.1,0.6,3.1,3.1c-0.1,9,0,9-9.1,9c-16.4,0-32.7,0-49.1,0
      c-6.5,0-8.7-2.9-7.2-9.3c4.6-19.7,9.4-39.3,13.9-59c1.5-6.5,0.3-13.2,0.5-19.8c0.1-1.8-1.4-1.6-2.4-1.7
      c-12.8-1.2-23.8-7.2-34.4-13.8c-14.3-9-23.1-21.8-25.6-38.6c-0.3-2.2-1.6-2.4-3.2-2.9c-16.1-4.7-28.3-20.5-27.3-36.1
      c0.3-4.5-1-7.1-3.8-10.2c-15.3-17.5-18.5-37.3-9.4-58.8c0.8-1.9,1.1-3.6,0.6-5.7c-1.7-6.9-3.2-13.9-4.7-20.8
      c-3.9-18.1,8.2-33.1,26.7-32.2c10.7,0.5,21.4,2.1,31.7,5.4c14.4,4.7,25.5,13.6,32.7,26.9c7.2,13.4,13.2,27.4,17,42.2
      c2.3,9.1,11.4,14.7,21.8,13.6c9.3-1,18.1-3.7,26.5-7.5c19.2-8.5,36.4-20.1,51.5-34.8c10.3-10,17.6-21.7,21.5-35.7
      c7.5-26.8,27.8-42.5,55.7-44c2.2-0.1,2.9-0.5,2.2-2.8c-0.4-1.3-0.3-2.7-0.3-4.1c0-6.9,4-11,10.9-11c3.7,0,7.2,0.9,10.5,2.5
      c1.8,0.9,3.3,1.1,5.2,0c1.9-1.1,4.1-1.7,6.3-2.3c9-2.3,16.3,1.8,18.9,10.6c0.6,1.9,1.1,2.8,3.3,3.1c13.3,1.4,19.3,13.2,12.2,24.5
      c-2.7,4.3-4.1,8.1-2.3,12.9c0.4,1.1,0.6,2.7,0.2,3.7c-2.2,5-0.6,8.5,3.1,12.5c4.3,4.7,5,11,4.1,17.3c-0.6,4.7-3.1,6.7-7.7,6
      c-8.4-1.3-16.7-2.8-25.1-4.3c-2.1-0.4-3-0.4-3.4,2.2c-1.1,6.9-5.1,12.1-10.4,16.3c-4.6,3.7-9.7,6.6-15.3,8.4
      c-2.5,0.8-2.9,2.1-2.5,4.4c1.7,12.6,3.3,25.3,4.9,37.9c3.1,25.2-0.1,49.5-9.3,73.1c-7,17.9-19.5,31-36.9,39
      c-9.4,4.3-16.7,10.7-23.2,18.5c-5.6,6.8-10.3,14.5-18.8,18.4c-1.5,0.7-0.9,1.9-0.6,3c2.9,12.9,5.8,25.8,8.6,38.7
      c0.4,2,1.2,2.3,3,2.3c6.7-0.1,13.5,0,20.2-0.1c1.8,0,2.5,0.3,2.6,2.4c0.2,9.6,0.3,9.6-9.2,9.6c-14.4,0-28.7,0-43.1,0
      c-5.2,0-6.8-1.2-8-6.4c-3.3-14.8-6.6-29.7-10-44.5c-0.9-4.1-5.3-6.7-9.4-5.4c-6.8,2.1-13.5,4.5-20.2,6.6c-1.1,0.3-1.7,0.8-2,1.8
      C499.6,682.7,496.2,694.5,492.7,706.7z M374.3,453.1c10.4-10.1,22.2-15.2,35.8-16c5.8-0.4,5.8-0.4,5.6,5.2c-0.1,1.5-0.2,3-0.2,4.5
      c0,1.8-0.7,2.3-2.5,2.3c-3.5-0.1-7,0.4-10.4,1.2c-30.4,7.2-42.4,45.3-21.4,68.4c1.1,1.2,1.9,3.2,3.7,0.3c1.5-2.4,2.6-6.6,5.2-6.6
      c2.5-0.1,4.9,3,7.5,4.5c1.7,1,1.9,1.9,0.7,3.5c-2.5,3.5-4.8,7.3-7.4,10.8c-1.9,2.6-2.6,5.4-2.3,8.5c1.1,9.8,6.4,16.7,14.9,21
      c7.9,4.1,15.7,2.6,23-2.2c2.1-1.4,3.3-5,5.9-4.3c2.5,0.6,4.5,3.1,6.7,4.7c0.1,0.1,0.2,0.2,0.3,0.2c2.2,1.1,1.6,2.2,0.3,3.7
      c-4.8,5.3-10.6,9.2-17.5,10.9c-2.6,0.6-3.2,1.6-2.6,4c1.3,4.7,2.8,9.3,5.6,13.4c10,14.5,24.6,21.8,41.2,25.6
      c6.9,1.6,14,2.2,21.1,3.1c11.6,1.4,21.4,5.7,27.2,16.6c0.6,1.1,1.5,2,2.2,3c5.4,8.2,13.2,12.3,22.8,13.1c3.4,0.3,6.7,0.4,10.1,0.3
      c17.5-0.6,15.3,3.4,29-14.1c7.9-10,17-18.4,28.9-23.7c14.1-6.3,24.3-17,30.3-31.3c6.5-15.2,9.7-31.2,10.1-47.7
      c0.4-19.4-3.2-38.5-5.7-57.7c-1.1-8.9-2.2-17.6,1.8-26.1c5.5-11.8,12.9-21.2,27.4-21.6c1.7,0,2-1.3,2.6-2.3c2-3.9,4.1-7.7,7.1-11
      c1.1-1.2,1-2.4,0.8-3.8c-1.9-11.7-8.8-19.4-19.7-23.3c-20.7-7.5-53.9,1-62,33c-4.1,16.4-13,29.5-24.8,41
      c-14.8,14.4-31.6,25.9-50.2,34.8c-11.2,5.4-22.8,9.4-35.2,10.8c-15.2,1.7-30.2-7.5-33.7-21.4c-2.7-10.5-6.7-20.4-11-30.1
      c-3.4-7.5-6.9-14.9-13-20.8c-14-13.5-32-14.9-49.8-15.5c-7.3-0.2-12.5,6.9-11.6,13.9C371.5,441.5,373.1,446.9,374.3,453.1z
       M658.4,370.3c1.2,3.2,0.3,6.6,4.4,7.8c17.3,5,28.1,16,31.1,34c0.4,2.7,2.4,2.4,3.9,2.5c2,0.1,2.2-1.9,1.9-3.3
      c-0.4-1.9-0.9-3.9-1.7-5.7c-2.2-5.2-2.1-6,1.9-10.2c1.4-1.5,2.7-3.3,3.9-5c0.9-1.3,1.8-2.9,0.5-4.4c-1.3-1.5-3-2.4-5-1.9
      c-1.2,0.3-2.3,0.9-3.4,1.4c-4.8,2.1-9-0.8-8.8-6c0.1-1.7,0.3-3.5,0.2-5.2c-0.3-4-2-5.1-5.7-3.9c-2.1,0.7-4.2,1.6-6.1,2.8
      c-3.2,2.1-6.2,2.1-9.4,0C663.9,371.7,661.6,370.7,658.4,370.3z M468.3,706.7c3.5,0,6.5-0.1,9.4,0.1c2.1,0.1,2.7-0.8,3.2-2.6
      c2.5-9.1,5.2-18.2,7.7-27.3c1-3.4,3.8-7.6,2.3-10.1c-1.6-2.6-6.3-3.4-9.7-5c-1.6-0.8-2.2-0.6-2.7,1.3
      C475.3,677.6,471.8,691.9,468.3,706.7z M481.8,631.1c0,5.6,0,10.9,0,16.3c0,0.8,0,1.5,0.8,1.9c6.1,2.7,12.3,5.4,18.4,8
      c0.3,0.1,0.8,0.1,1.1,0c3.6-1.2,7.2-2.4,11.3-3.7c-3.5-3.5-6.6-6.9-8.7-10.8c-4-7.1-10.2-10.1-17.9-10.9
      C485.3,631.7,483.8,631.4,481.8,631.1z M546.3,665.1c3,13.3,6,26.7,8.9,40c0.3,1.2,0.8,1.6,2,1.6c3.3,0,6.6,0,10.1,0
      c-2.4-11-4.7-21.5-7.1-32.1c-0.7-3.2-0.3-7.8-2.6-9.3c-2.5-1.6-6.7-0.4-10.2-0.5C547,664.9,546.8,665,546.3,665.1z M706.6,435.9
      c-1.7-5.8-6-7.9-10.9-9.4c-5.5-1.7-6.2-1.3-8.9,3.9c-0.9,1.7-0.4,2.2,1.2,2.4C694.1,433.8,700.2,434.9,706.6,435.9z M654.6,459.2
      c2.8-0.7,4.6-1.8,6.5-3c4.2-2.6,8-5.6,9.6-10.5c0.3-0.8,1-2,0.2-2.7c-0.8-0.7-1.9-0.2-2.8,0.2C660.8,446,657.4,452,654.6,459.2z" />
                               <path class="st1" d="M415.8,650.1c13.9-0.5,26,5.4,33.6,19c11.6,20.9-1.4,46.9-25.1,50c-17.2,2.3-33.2-1.7-47.9-10.8
      c-2.4-1.5-4.7-3.4-6.7-5.4c-13.3-13.1-11.7-30.7,3.7-41.3C383.8,654.5,399.3,650.1,415.8,650.1z M414,662.1
      c-5.4-0.2-10.6,0.6-15.6,1.8c-7.2,1.7-14.1,4.2-20,9c-6.8,5.6-7.5,12.9-1.8,19.7c2.7,3.2,5.9,5.7,9.6,7.6
      c11.2,5.8,23.1,8.5,35.8,7.1c15-1.7,23.9-17.2,17.6-30.9C434.5,665.6,425.5,661.4,414,662.1z" />
                               <path class="st2"
                                     d="M410.4,626.9c0.1,5.8,0.1,5.7-5.7,6.3c-10.1,1-19.3,4.7-27.6,10.6c-2.5,1.8-3.5,1.3-5-1.1
      c-4.6-7.3-2.7-5.2,4.5-9.6c9.8-5.9,20.3-9.3,31.7-10.2c3.2-0.3,2.8-1.8,2.2,1.7C410.3,625.4,410.4,626.2,410.4,626.9z" />
                               <path class="st2" d="M554.8,515c4.5-0.6,7.4-3.1,10.2-5.8c8.8-8.5,15.3-18.7,20.9-29.4c1.7-3.2,2.9-3.6,6.1-1.9
      c6.8,3.7,7,3.5,3.2,10.2c-6.8,12.1-14.4,23.7-25.3,32.6c-4.2,3.5-8.9,5.9-14.4,6.5c-7.2,0.8-12.8-3.6-12.8-10.7
      c0-8.3,4-15.3,8-22.2c0.5-0.8,1-1,1.8-0.5c0.4,0.3,0.9,0.5,1.3,0.8c2.4,1.5,5.9,2.6,6.9,4.8c1.2,2.4-2.2,4.8-3.1,7.5
      C556.6,509.3,555.3,511.7,554.8,515z" />
                               <path class="st2" d="M604.1,533.3c-5.2-0.3-9.6-1.5-12-6.1c-2.6-4.9-1.4-9.7,0.5-14.4c0.5-1.3,1.2-0.9,2-0.5
      c2.5,1.3,5.1,2.6,7.7,3.8c1.2,0.5,1.4,1.2,1,2.4c-1.3,3.3,0.7,2.8,2.7,2.5c8.5-1.4,16.3-4.5,23.3-9.6c1.5-1.1,2.4-1.4,3.6,0.2
      c0.6,0.9,1.5,1.6,2.3,2.4c4.7,4.8,4.7,4.8-0.8,8.5C625,528.7,614.8,532.4,604.1,533.3z" />
                               <path class="st2" d="M657.1,401.2c4.3,0,7.6,3.3,7.6,7.5c0,4.3-3.6,7.8-7.9,7.7c-4.2-0.1-7.5-3.5-7.4-7.8
      C649.4,404.5,652.8,401.2,657.1,401.2z" />
                           </g>
                        </svg>
