<svg version="1.1" id="Layer_5" xmlns="http://www.w3.org/2000/svg"
     xmlns:xlink="http://www.w3.org/1999/xlink" x="0px" y="0px" viewBox="0 0 1080 1080"
     style="enable-background:new 0 0 1080 1080;" xml:space="preserve">

                           <g>
                              <path class="st0"
                                    d="M768.3,294.9c-3.5,4.2-8.1,5.1-13.3,4.9c-6.3-0.3-12.6-0.1-19.6-0.1c3.3,6.7,6.2,12.9,7.7,19.7
      c5.8,27.5-1.3,51.3-21.1,71.1C662.6,450,603.1,509.5,543.7,568.9c-23.3,23.3-46.3,47-70.2,69.9c-23.6,22.6-56,26.5-85.2,11.8
      c-0.6-0.3-1.3-0.6-2.4-1.1c0,7.5,0,14.6,0,21.8c0,9.8-5.5,13.4-14.7,9.7c-21.2-8.7-36-23.8-44.3-45.2c-2.9-7.4,0.7-13,8.7-13.3
      c6.6-0.2,13.3-0.1,19.9,0c2.4,0,3.5-0.1,2-3c-15.1-28.9-9-64.3,15.5-88.7c81.4-80.9,162.6-162,243.4-243.5
      c24.3-24.5,60-31.5,90.2-15.3c0.5,0.2,1,0.4,1.9,0.7c0-7.2,0.3-14.1-0.1-21c-0.3-5.4,1.4-9.5,6.2-12.1c1.7,0,3.5,0,5.2,0
      c0.1,0.7,0.7,0.7,1.2,0.9c18.7,7,32.7,19.3,42.3,36.9c1.8,3.2,2.4,7,4.9,9.8C768.3,289.7,768.3,292.3,768.3,294.9z M428.9,640.3
      c10.6-0.1,24.2-5.9,35.5-17.3c81.6-81.7,163.3-163.3,245-245c1.4-1.4,2.8-2.9,4.2-4.4c12.2-13.6,17-29.4,14-47.5
      c-6.7-40.2-53.4-59.8-86.9-36.5c-9.8,6.8-17.1,16.2-25.8,24.2c-2.2,2-2.3,3.1-0.1,5.3c8.7,8.4,17.2,17.1,25.7,25.6
      c2.4,2.4,4.3,5.1,3.6,8.8c-0.6,3.4-2.5,5.9-5.7,7c-3.9,1.3-7.3,0-10.2-2.9c-8.8-8.8-17.6-17.5-26.2-26.4c-1.9-2-2.9-1.8-4.7,0.1
      c-16.1,16.3-32.3,32.5-48.6,48.6c-2,2-1.7,2.9,0.1,4.7c8.7,8.5,17.2,17.1,25.7,25.6c2.5,2.5,4.5,5.3,3.8,9.1
      c-0.6,3.4-2.6,5.8-5.8,6.9c-4,1.3-7.3-0.2-10.1-3.1c-8.6-8.7-17.4-17.3-25.9-26.1c-2-2-3-2-5,0c-16,16.2-32.1,32.3-48.3,48.3
      c-2.1,2-1.9,3.1,0.1,5c8.7,8.5,17.2,17.1,25.7,25.6c2.5,2.5,4.5,5.3,3.7,9.2c-0.7,3.4-2.7,5.8-6,6.7c-3.8,1.1-7-0.2-9.8-2.9
      c-8.7-8.7-17.4-17.3-25.9-26.1c-2.1-2.2-3.2-2.1-5.3,0c-15.7,15.9-31.5,31.7-47.5,47.4c-2.8,2.7-2.6,4,0.1,6.6
      c8.5,8.2,16.8,16.6,25.1,25c4.6,4.6,5,9.5,1.4,13.4c-3.6,3.9-9.2,3.7-13.7-0.7c-8.8-8.7-17.6-17.5-26.3-26.3
      c-1.7-1.7-2.6-1.9-4.4-0.1c-5.5,5.7-11.4,11-16.7,16.9c-16.2,17.9-20.3,38.4-11.4,60.8C380.6,626.8,401.3,640.3,428.9,640.3z
       M745.5,282c-5.1-8.2-11.1-14.4-19.4-19.3c0,6.1,0,11.5,0,16.9c0,1.5,0.3,2.4,2.1,2.4C733.8,281.9,739.3,282,745.5,282z
       M348.7,640.2c5.2,8.2,11.1,14.3,19.3,19.2c0-6.3,0-11.7,0-17.2c0-1.4-0.4-2.1-1.9-2C360.6,640.2,355.1,640.2,348.7,640.2z" />
                           </g>
                        </svg>
