<svg version="1.1" id="Layer_10" xmlns="http://www.w3.org/2000/svg"
     xmlns:xlink="http://www.w3.org/1999/xlink" x="0px" y="0px" viewBox="0 0 1080 1080"
     style="enable-background:new 0 0 1080 1080;" xml:space="preserve">

                           <g>
                              <path class="st0" d="M524.8,378c4.5-9.5,12.6-11.5,22.1-11.3c19.4,0.5,37.8,4.5,55.4,12.6c5,2.3,8.8,5.7,10.5,11
      c0.6,1.7,1.3,2,3,1.6c4.8-0.9,9.1,0.5,13,3.3c14,10.1,25.1,22.8,33.2,38.1c2,3.8,3,8,1.8,12.3c-0.5,1.9-0.4,3.1,1.7,4.1
      c4.1,2,6.5,5.5,8.2,9.8c6.2,16,5.8,32.2,2.4,48.7c-0.6,3.1-1.3,6.1-2,9.1c-0.8,3.3-1.9,6.9-4.8,8.6c-4.5,2.8-4.6,5.6-2.5,10
      c1.6,3.4,0.8,7.1-0.4,10.6c-4.6,14.4-10.6,28.2-18.2,41.3c-3.1,5.3-7.3,8.8-13.4,9.8c-1.4,0.2-2,0.5-1.9,2
      c0.9,8.3-3.3,14.2-9.7,18.6c-4.8,3.3-8,7.6-10.9,12.4c-10.6,17.6-22.6,34.2-37,48.8c-8.6,8.7-17.8,16.4-29.1,21.3
      c-8.4,3.6-11.8,1.4-11.6-7.7c0-0.5,0-1,0-2.1c-3.2,2.6-6.1,5.1-9.1,7.4c-10.1,7.8-20.9,14-33.9,15.7c-1.6,0.2-3.2,0.4-4.9,0.3
      c-4.6-0.1-7.1-3.6-5.9-8.2c4.1-16,10.3-31.2,18.2-45.7c15.4-28.5,34.8-53.9,59.6-74.9c2-1.7,2.7-3.9,3.7-6
      c2.3-4.6,4.8-9.1,9.8-11.4c1.2-0.6,1.1-1.3,0.8-2.4c-1.2-4.5-0.4-8.9,1.3-13.2c2.5-6.3,4.4-12.7,6-19.3c0.9-3.8,2.3-7.4,5.3-10.1
      c1.2-1.1,1.2-1.9,0.4-3.1c-2-3.3-2.7-7-2.5-10.8c0.4-5.9-1.9-11.7-0.9-17.5c0.5-2.9-0.2-4.2-2.5-5.9c-4.2-3.1-7.4-7.4-9.3-12.4
      c-0.6-1.6-1.2-2.2-2.9-2c-1.6,0.2-3.3,0.1-4.8-0.5c-8.5-3.3-14.9,0.4-20.2,6.5c-3.7,4.3-7.6,7.9-13.6,8.3c-1.7,0.1-1.6,1.2-1.5,2.3
      c0,9.9-4.2,17.7-11.3,24.3c-16.1,14.9-35.4,19.7-56.7,18c-10.7-0.9-21.4-2-31.6-5.8c-11.9-4.4-21.6-11.2-24.7-24.4
      c-2.5-10.5,0-20.6,3.9-30.3c4.4-10.9,10.8-20.5,18.5-29.3c3.7-4.3,8.4-7.5,13.7-9.5c1.9-0.7,2.5-1.4,1.9-3.4
      c-1.6-6.1,0.1-11.4,4.1-16c16-18.2,35.5-31.2,58.6-38.8C512.2,370.5,518.5,373.6,524.8,378z M463.5,518.9
      c21,0.6,35.6-4.9,47.4-17.4c6-6.4,6.8-14.4,2.4-22c-12.9-22.4-32.6-34.3-57.9-37.7c-7.4-1-14.2,0.3-19.2,5.9
      c-9.5,10.6-17.1,22.4-20.4,36.5c-3.4,14.5,1.5,23.4,15.4,29C442.8,517.8,455.2,518.5,463.5,518.9z M547.4,454.8
      c-0.4-14.5-2.8-28.1-8.8-40.8c-5.4-11.7-12.6-21.8-24.1-28.3c-2.4-1.4-4.7-1.8-7.5-0.8c-19.7,6.9-36.7,17.9-50.7,33.4
      c-1.9,2.1-4,4.2-2.9,7.5c1.2,3.6,4.2,4.3,7.4,4.8c6.5,0.9,12.7,2.6,18.8,4.9c17.8,6.9,31.8,18.4,42.1,34.5
      c3.6,5.6,7.3,5.8,11.6,0.8c2.9-3.4,6-6.5,9.9-8.5C546.7,460.5,548.7,458.3,547.4,454.8z M631.5,523.6c8.5-0.1,17.2-1.5,25.8-3.8
      c2.8-0.8,4.6-2.4,5.1-5.3c0.8-3.9,1.7-7.8,2.5-11.7c2.6-13.1,2.5-26-2.4-38.7c-2.1-5.4-6-6.6-10.5-3.1
      c-15.8,12.4-33.4,21.2-52.5,27.2c-4.1,1.3-5.4,3.4-4.9,7.6c0.6,4.8,1.1,9.7,1,14.5c-0.1,3.7,1.6,6,5.1,7.4
      C610.5,521.5,620.6,523.5,631.5,523.6z M548,378.8c-2.1,0-4.3-0.1-6.4,0c-5.5,0.4-7.9,5.5-4.7,10c1.4,2,3.1,3.9,4.5,6
      c12.4,17.4,17.1,37.2,17.8,58.1c0.1,3.8,0.9,5.7,5,6.3c3.1,0.4,5.9,1.3,8.2-1.5c14.5-17.4,25.8-36.3,29.3-59.2
      c0.6-3.9-0.7-6.5-4.2-8.1C581.9,383,565.3,379.3,548,378.8z M631.5,586.2c2.3,0.1,4.4-0.8,5.7-3.1c7.6-12.9,13.6-26.6,18-40.9
      c1.4-4.7-2.1-8.8-6.9-8c-16.2,2.7-32,1.5-47.6-3.6c-3.9-1.3-7.1,0.5-8.1,4.4c-2.1,8.1-4.4,16.1-7.4,23.9c-1,2.6-0.7,5.2,1.5,7.2
      C599.5,577.4,614.2,584.4,631.5,586.2z M591.1,478c0.9-0.1,1.6-0.2,2.3-0.4c20.7-6.1,39.7-15.5,55.9-29.9c3.6-3.2,4-5.3,1.7-9.5
      c-7-13.1-16.6-24-28.6-32.7c-4.5-3.3-8.7-1.8-10.3,3.6c-1,3.2-1.8,6.5-2.9,9.7c-5.5,16.3-14.4,30.6-25.1,43.9
      c-1.9,2.4-3.3,5.1-1.4,7.8C584.8,473.6,586.3,477.8,591.1,478z M561.4,599.5c-30.6,28.5-52.6,62.1-66.3,102.1c1.9-0.5,3-0.8,4-1.2
      c1.9-0.7,3.7-1.5,5.5-2.4c13.1-6.6,23.4-16.4,33.1-27.2c1.9-2.2,3.4-4.5,4.5-7.2c3.1-7.9,6.9-15.5,10.9-22.9
      c4.9-8.9,10-17.8,14.9-26.8c0.5-1,1.8-2,0.5-3.3C565.4,607.5,563.6,603.6,561.4,599.5z M602.2,625c-7.9-0.7-14.9-2-21.3-5.2
      c-1.4-0.7-2.1-0.4-2.9,1c-9.6,16.8-19.5,33.4-26.4,51.5c-1.7,4.5-3.2,9-3.7,14.7C571.8,670.9,586.9,648.5,602.2,625z M605,613.1
      c6.3,1.6,10.7-3.3,14.9-7.8c2.9-3,1.4-7.6-2.4-9.2c-1.8-0.7-3.8-1.2-5.7-1.8c-9.7-3.1-18.5-7.9-26.7-13.9c-3.7-2.8-6.8-2.6-9.2,0.4
      c-5,6-5.4,11.3-1.3,18.1c2.7,4.4,6.3,7.7,10.9,9.9C591.4,611.6,597.6,612.8,605,613.1z" />
                           </g>
                        </svg>
